<svg id="Capa_1" enable-background="new 0 0 512 512" height="80" viewBox="0 0 512 512" width="80" xmlns="http://www.w3.org/2000/svg"><g><path d="m319.462 300c-1.15-.034-18.462 0-18.462 0v-10.145c35.443-16.882 60-53.053 60-94.855v-180c0-8.284-6.716-15-15-15s-15 6.716-15 15v26.596c-19.073-19.483-45.646-31.596-75-31.596s-55.927 12.113-75 31.596v-26.596c0-8.284-6.716-15-15-15s-15 6.716-15 15v180c0 41.802 24.557 77.973 60 94.855v10.145s-17.312-.034-18.462 0c-106.573 2.381-192.538 89.866-192.538 197 0 8.284 6.716 15 15 15h482c8.284 0 15-6.716 15-15 0-107.134-85.965-194.619-192.538-197zm81.538 182h-39.999v-37.023c0-8.284-6.716-15-15-15s-15 6.716-15 15v37.023h-150v-37.023c0-8.284-6.716-15-15-15s-15 6.716-15 15v37.023h-40.001v-67c0-35.559 21.958-66.07 53.019-78.734l49.287 60.239c-7.886 7.952-12.306 18.03-12.306 28.495 0 12.664 6.457 24.769 17.716 33.213 10.134 7.601 23.375 11.787 37.284 11.787s27.15-4.186 37.284-11.787c11.259-8.444 17.716-20.549 17.716-33.213 0-10.465-4.42-20.543-12.306-28.495l49.287-60.239c31.061 12.663 53.019 43.175 53.019 78.734zm-120-57c0 7.081-10.691 15-25 15s-25-7.919-25-15 10.691-15 25-15 25 7.919 25 15zm-10-260c0-19.299 15.701-35 35-35h25v5c0 19.299-15.701 35-35 35h-25zm-15-125c36.22 0 66.522 25.808 73.491 60h-23.491c-20.084 0-38.067 9.16-50 23.518-11.933-14.358-29.916-23.518-50-23.518h-23.491c6.969-34.192 37.271-60 73.491-60zm-15 130h-25c-19.299 0-35-15.701-35-35v-5h25c19.299 0 35 15.701 35 35zm-60 25v-5.271c10.112 6.489 22.119 10.271 35 10.271h80c12.881 0 24.888-3.782 35-10.271v5.271c0 41.355-33.645 75-75 75s-75-33.645-75-75zm45 135c8.284 0 15-6.716 15-15v-16.076c4.901.704 9.907 1.076 15 1.076s10.099-.372 15-1.076v16.076c0 8.284 6.716 15 15 15h28.346l-42.456 51.89c-5.098-1.239-10.441-1.89-15.89-1.89s-10.792.651-15.89 1.89l-42.456-51.89zm-134.959 38.023c-6.449 14.351-10.041 30.252-10.041 46.977v67h-50.332c4.093-45.791 26.755-86.31 60.373-113.977zm339.959 113.977v-67c0-16.725-3.592-32.626-10.041-46.977 33.618 27.667 56.28 68.186 60.373 113.977z"/></g></svg>