<?xml version="1.0" encoding="iso-8859-1"?>
<!-- Generator: Adobe Illustrator 17.1.0, SVG Export Plug-In . SVG Version: 6.00 Build 0)  -->
<!DOCTYPE svg PUBLIC "-//W3C//DTD SVG 1.1//EN" "http://www.w3.org/Graphics/SVG/1.1/DTD/svg11.dtd">
<svg version="1.1" id="Capa_1" xmlns="http://www.w3.org/2000/svg" xmlns:xlink="http://www.w3.org/1999/xlink" x="0px" y="0px" height="80pt" width="80pt"
	 viewBox="0 0 97.341 97.341" style="enable-background:new 0 0 97.341 97.341;" xml:space="preserve">
<g>
	<path d="M37.162,23.714c1.207,0,2.398-0.215,3.539-0.639c2.546-0.945,4.572-2.826,5.704-5.296s1.234-5.231,0.288-7.778
		c-1.473-3.965-5.304-6.63-9.534-6.63c-1.207,0-2.398,0.215-3.539,0.639c-5.256,1.953-7.944,7.817-5.993,13.074
		C29.101,21.049,32.933,23.714,37.162,23.714z"/>
	<path d="M82.277,0.459c-0.851-0.704-2.112-0.585-2.816,0.266L69.258,13.05l-1.284-1.063c-0.851-0.704-2.111-0.585-2.816,0.266
		s-0.585,2.111,0.265,2.816l1.284,1.063l-1.725,2.084c-0.903-0.039-1.831,0.168-2.502,0.637l-8.042,5.632
		c-0.771,0.54-2.264,1.14-3.194,1.283l-7.47,1.152l-5.907,0.58c-0.012,0.001-0.023-0.002-0.035,0l-4.333,0.414
		c-1.444,0.139-3.037,1.214-3.705,2.5l-8.013,15.414c-0.672,1.293-0.556,3.248,0.263,4.452L30,61.976
		c0.581,0.855,1.635,1.527,2.726,1.799l-5.092,8.136c-0.745,1.189-2.06,3.052-2.93,4.151l-9.508,12.002
		c-1.196,1.512-1.133,3.826,0.145,5.27l1.262,1.425c0.64,0.723,1.494,1.12,2.407,1.12c0.946,0,1.851-0.444,2.482-1.22l11.452-14.049
		c0.927-1.138,2.316-3.073,3.098-4.315l6.142-9.767l4.444,7.923c0.594,1.059,0.995,3.044,0.859,4.249l-1.713,15.182
		c-0.105,0.937,0.157,1.812,0.741,2.465c0.574,0.642,1.392,0.995,2.303,0.995c0.112,0,0.227-0.005,0.342-0.017l1.892-0.181
		c1.905-0.182,3.564-1.813,3.779-3.714l1.712-15.182c0.178-1.573-0.085-3.98-0.6-5.479l-3.782-11.03l-2.229-27.891l6.642-1.265
		c1.269-0.242,2.984-1.14,3.906-2.043l7.47-7.321c0.592-0.581,0.888-1.354,0.811-2.122c-0.03-0.3-0.131-0.583-0.266-0.851
		l1.294-1.563l1.284,1.063c0.373,0.309,0.825,0.459,1.274,0.459c0.575,0,1.146-0.247,1.542-0.725
		c0.705-0.851,0.585-2.111-0.265-2.816L72.339,15.6L82.542,3.276C83.246,2.425,83.127,1.164,82.277,0.459z M34.14,55.37
		l-4.377-5.943c-0.414-0.562-0.461-1.616-0.101-2.213l4.252-7.038L34.14,55.37z"/>
</g>
<g>
</g>
<g>
</g>
<g>
</g>
<g>
</g>
<g>
</g>
<g>
</g>
<g>
</g>
<g>
</g>
<g>
</g>
<g>
</g>
<g>
</g>
<g>
</g>
<g>
</g>
<g>
</g>
<g>
</g>
</svg>
